<?xml version='1.0' encoding='UTF-8' standalone='no'?>
<!-- Created with Fritzing (http://www.fritzing.org/) -->
<svg xmlns:svg='http://www.w3.org/2000/svg' xmlns='http://www.w3.org/2000/svg' version='1.2' baseProfile='tiny' x='0in' y='0in' width='2.49999in' height='2.68745in' viewBox='0 0 179.999 193.496' >
<g partID='386050'><g transform='translate(0,13.9731)' ><g id="schematic">
<rect x="14.85" height="135.9" stroke-linecap="round" class="interior rect" width="78.3" y="14.85" fill="#FFFFFF" stroke="#000000" stroke-width="0.9"/>
<line y1="28.8" stroke-linecap="round" class="pin" x2="107.65" y2="28.8" x1="93.2499" fill="none" stroke="#787878" stroke-width="0.699999" id="connector61pin"/>
<text x="91.8499" class="text" text-anchor="end" font-size="3.49999" y="29.4999" fill="#8c8c8c" font-family="'Droid Sans'" stroke="none" stroke-width="0">D0/RX</text>
<g x="107.65" height="0.699999" class="terminal" width="0.699999" y="28.4499" fill="none" stroke="none" stroke-width="0" id="connector61terminal"/>
<line y1="36" stroke-linecap="round" class="pin" x2="107.65" y2="36" x1="93.2499" fill="none" stroke="#787878" stroke-width="0.699999" id="connector62pin"/>
<text x="91.8499" class="text" text-anchor="end" font-size="3.49999" y="36.6999" fill="#8c8c8c" font-family="'Droid Sans'" stroke="none" stroke-width="0">D1/TX</text>
<g x="107.65" height="0.699999" class="terminal" width="0.699999" y="35.6499" fill="none" stroke="none" stroke-width="0" id="connector62terminal"/>
<line y1="43.2" stroke-linecap="round" class="pin" x2="107.65" y2="43.2" x1="93.2499" fill="none" stroke="#787878" stroke-width="0.699999" id="connector63pin"/>
<text x="91.8499" class="text" text-anchor="end" font-size="3.49999" y="43.8999" fill="#8c8c8c" font-family="'Droid Sans'" stroke="none" stroke-width="0">D2</text>
<g x="107.65" height="0.699999" class="terminal" width="0.699999" y="42.8499" fill="none" stroke="none" stroke-width="0" id="connector63terminal"/>
<line y1="50.4" stroke-linecap="round" class="pin" x2="107.65" y2="50.4" x1="93.2499" fill="none" stroke="#787878" stroke-width="0.699999" id="connector64pin"/>
<text x="91.8499" class="text" text-anchor="end" font-size="3.49999" y="51.0999" fill="#8c8c8c" font-family="'Droid Sans'" stroke="none" stroke-width="0">D3 PWM</text>
<g x="107.65" height="0.699999" class="terminal" width="0.699999" y="50.0499" fill="none" stroke="none" stroke-width="0" id="connector64terminal"/>
<line y1="57.6" stroke-linecap="round" class="pin" x2="107.65" y2="57.6" x1="93.2499" fill="none" stroke="#787878" stroke-width="0.699999" id="connector65pin"/>
<text x="91.8499" class="text" text-anchor="end" font-size="3.49999" y="58.2999" fill="#8c8c8c" font-family="'Droid Sans'" stroke="none" stroke-width="0">D4</text>
<g x="107.65" height="0.699999" class="terminal" width="0.699999" y="57.2499" fill="none" stroke="none" stroke-width="0" id="connector65terminal"/>
<line y1="64.8" stroke-linecap="round" class="pin" x2="107.65" y2="64.8" x1="93.2499" fill="none" stroke="#787878" stroke-width="0.699999" id="connector66pin"/>
<text x="91.8499" class="text" text-anchor="end" font-size="3.49999" y="65.4999" fill="#8c8c8c" font-family="'Droid Sans'" stroke="none" stroke-width="0">D5 PWM</text>
<g x="107.65" height="0.699999" class="terminal" width="0.699999" y="64.4499" fill="none" stroke="none" stroke-width="0" id="connector66terminal"/>
<line y1="72" stroke-linecap="round" class="pin" x2="107.65" y2="72" x1="93.2499" fill="none" stroke="#787878" stroke-width="0.699999" id="connector67pin"/>
<text x="91.8499" class="text" text-anchor="end" font-size="3.49999" y="72.6999" fill="#8c8c8c" font-family="'Droid Sans'" stroke="none" stroke-width="0">D6 PWM</text>
<g x="107.65" height="0.699999" class="terminal" width="0.699999" y="71.6499" fill="none" stroke="none" stroke-width="0" id="connector67terminal"/>
<line y1="79.2" stroke-linecap="round" class="pin" x2="107.65" y2="79.2" x1="93.2499" fill="none" stroke="#787878" stroke-width="0.699999" id="connector68pin"/>
<text x="91.8499" class="text" text-anchor="end" font-size="3.49999" y="79.8999" fill="#8c8c8c" font-family="'Droid Sans'" stroke="none" stroke-width="0">D7</text>
<g x="107.65" height="0.699999" class="terminal" width="0.699999" y="78.8499" fill="none" stroke="none" stroke-width="0" id="connector68terminal"/>
<line y1="86.4" stroke-linecap="round" class="pin" x2="107.65" y2="86.4" x1="93.2499" fill="none" stroke="#787878" stroke-width="0.699999" id="connector51pin"/>
<text x="91.8499" class="text" text-anchor="end" font-size="3.49999" y="87.0999" fill="#8c8c8c" font-family="'Droid Sans'" stroke="none" stroke-width="0">D8</text>
<g x="107.65" height="0.699999" class="terminal" width="0.699999" y="86.0499" fill="none" stroke="none" stroke-width="0" id="connector51terminal"/>
<line y1="93.6" stroke-linecap="round" class="pin" x2="107.65" y2="93.6" x1="93.2499" fill="none" stroke="#787878" stroke-width="0.699999" id="connector52pin"/>
<text x="91.8499" class="text" text-anchor="end" font-size="3.49999" y="94.2999" fill="#8c8c8c" font-family="'Droid Sans'" stroke="none" stroke-width="0">D9 PWM</text>
<g x="107.65" height="0.699999" class="terminal" width="0.699999" y="93.2499" fill="none" stroke="none" stroke-width="0" id="connector52terminal"/>
<line y1="100.8" stroke-linecap="round" class="pin" x2="107.65" y2="100.8" x1="93.2499" fill="none" stroke="#787878" stroke-width="0.699999" id="connector53pin"/>
<text x="91.8499" class="text" text-anchor="end" font-size="3.49999" y="101.5" fill="#8c8c8c" font-family="'Droid Sans'" stroke="none" stroke-width="0">D10 PWM/SS</text>
<g x="107.65" height="0.699999" class="terminal" width="0.699999" y="100.45" fill="none" stroke="none" stroke-width="0" id="connector53terminal"/>
<line y1="108" stroke-linecap="round" class="pin" x2="107.65" y2="108" x1="93.2499" fill="none" stroke="#787878" stroke-width="0.699999" id="connector54pin"/>
<text x="91.8499" class="text" text-anchor="end" font-size="3.49999" y="108.7" fill="#8c8c8c" font-family="'Droid Sans'" stroke="none" stroke-width="0">D11 PWM/MOSI</text>
<g x="107.65" height="0.699999" class="terminal" width="0.699999" y="107.65" fill="none" stroke="none" stroke-width="0" id="connector54terminal"/>
<line y1="115.2" stroke-linecap="round" class="pin" x2="107.65" y2="115.2" x1="93.2499" fill="none" stroke="#787878" stroke-width="0.699999" id="connector55pin"/>
<text x="91.8499" class="text" text-anchor="end" font-size="3.49999" y="115.9" fill="#8c8c8c" font-family="'Droid Sans'" stroke="none" stroke-width="0">D12/MISO</text>
<g x="107.65" height="0.699999" class="terminal" width="0.699999" y="114.85" fill="none" stroke="none" stroke-width="0" id="connector55terminal"/>
<line y1="122.4" stroke-linecap="round" class="pin" x2="107.65" y2="122.4" x1="93.2499" fill="none" stroke="none" stroke-width="0" id="connector41pin"/>
<rect x="107.65" height="0.699999" class="terminal" width="0.699999" y="122.05" fill="none" stroke="none" stroke-width="0" id="connector41terminal"/>
<line y1="122.4" stroke-linecap="round" class="pin" x2="107.65" y2="122.4" x1="93.2499" fill="none" stroke="#787878" stroke-width="0.699999" id="connector56pin"/>
<text x="91.8499" class="text" text-anchor="end" font-size="3.49999" y="123.1" fill="#8c8c8c" font-family="'Droid Sans'" stroke="none" stroke-width="0">D13/SCK</text>
<g x="107.65" height="0.699999" class="terminal" width="0.699999" y="122.05" fill="none" stroke="none" stroke-width="0" id="connector56terminal"/>
<line y1="28.8" stroke-linecap="round" class="pin" x2="14.75" y2="28.8" x1="0.349999" fill="none" stroke="none" stroke-width="0" id="connector43pin"/>
<rect x="-0.349999" height="0.699999" class="terminal" width="0.699999" y="28.4499" fill="none" stroke="none" stroke-width="0" id="connector43terminal"/>
<line y1="28.8" stroke-linecap="round" class="pin" x2="14.75" y2="28.8" x1="0.349999" fill="none" stroke="#787878" stroke-width="0.699999" id="connector85pin"/>
<text x="16.15" class="text" text-anchor="start" font-size="3.49999" y="29.4999" fill="#8c8c8c" font-family="'Droid Sans'" stroke="none" stroke-width="0">RESET</text>
<g x="-0.349999" height="0.699999" class="terminal" width="0.699999" y="28.4499" fill="none" stroke="none" stroke-width="0" id="connector85terminal"/>
<line y1="36" stroke-linecap="round" class="pin" x2="14.75" y2="36" x1="0.349999" fill="none" stroke="#787878" stroke-width="0.699999" id="connector49pin"/>
<text x="16.15" class="text" text-anchor="start" font-size="3.49999" y="36.6999" fill="#8c8c8c" font-family="'Droid Sans'" stroke="none" stroke-width="0">RESET2</text>
<rect x="-0.349999" height="0.699999" class="terminal" width="0.699999" y="35.6499" fill="none" stroke="none" stroke-width="0" id="connector49terminal"/>
<line y1="43.2" stroke-linecap="round" class="pin" x2="14.75" y2="43.2" x1="0.349999" fill="none" stroke="#787878" stroke-width="0.699999" id="connector58pin"/>
<text x="16.15" class="text" text-anchor="start" font-size="3.49999" y="43.8999" fill="#8c8c8c" font-family="'Droid Sans'" stroke="none" stroke-width="0">AREF</text>
<g x="-0.349999" height="0.699999" class="terminal" width="0.699999" y="42.8499" fill="none" stroke="none" stroke-width="0" id="connector58terminal"/>
<line y1="50.4" stroke-linecap="round" class="pin" x2="14.75" y2="50.4" x1="0.349999" fill="none" stroke="#787878" stroke-width="0.699999" id="connector84pin"/>
<text x="16.15" class="text" text-anchor="start" font-size="3.49999" y="51.0999" fill="#8c8c8c" font-family="'Droid Sans'" stroke="none" stroke-width="0">ioref</text>
<g x="-0.349999" height="0.699999" class="terminal" width="0.699999" y="50.0499" fill="none" stroke="none" stroke-width="0" id="connector84terminal"/>
<line y1="64.8" stroke-linecap="round" class="pin" x2="14.75" y2="64.8" x1="0.349999" fill="none" stroke="#787878" stroke-width="0.699999" id="connector0pin"/>
<text x="16.15" class="text" text-anchor="start" font-size="3.49999" y="65.4999" fill="#8c8c8c" font-family="'Droid Sans'" stroke="none" stroke-width="0">A0</text>
<g x="-0.349999" height="0.699999" class="terminal" width="0.699999" y="64.4499" fill="none" stroke="none" stroke-width="0" id="connector0terminal"/>
<line y1="72" stroke-linecap="round" class="pin" x2="14.75" y2="72" x1="0.349999" fill="none" stroke="#787878" stroke-width="0.699999" id="connector1pin"/>
<text x="16.15" class="text" text-anchor="start" font-size="3.49999" y="72.6999" fill="#8c8c8c" font-family="'Droid Sans'" stroke="none" stroke-width="0">A1</text>
<g x="-0.349999" height="0.699999" class="terminal" width="0.699999" y="71.6499" fill="none" stroke="none" stroke-width="0" id="connector1terminal"/>
<line y1="79.2" stroke-linecap="round" class="pin" x2="14.75" y2="79.2" x1="0.349999" fill="none" stroke="#787878" stroke-width="0.699999" id="connector2pin"/>
<text x="16.15" class="text" text-anchor="start" font-size="3.49999" y="79.8999" fill="#8c8c8c" font-family="'Droid Sans'" stroke="none" stroke-width="0">A2</text>
<g x="-0.349999" height="0.699999" class="terminal" width="0.699999" y="78.8499" fill="none" stroke="none" stroke-width="0" id="connector2terminal"/>
<line y1="86.4" stroke-linecap="round" class="pin" x2="14.75" y2="86.4" x1="0.349999" fill="none" stroke="#787878" stroke-width="0.699999" id="connector3pin"/>
<text x="16.15" class="text" text-anchor="start" font-size="3.49999" y="87.0999" fill="#8c8c8c" font-family="'Droid Sans'" stroke="none" stroke-width="0">A3</text>
<g x="-0.349999" height="0.699999" class="terminal" width="0.699999" y="86.0499" fill="none" stroke="none" stroke-width="0" id="connector3terminal"/>
<line y1="93.6" stroke-linecap="round" class="pin" x2="14.75" y2="93.6" x1="0.349999" fill="none" stroke="none" stroke-width="0" id="connector48pin"/>
<rect x="-0.349999" height="0.699999" class="terminal" width="0.699999" y="93.2499" fill="none" stroke="none" stroke-width="0" id="connector48terminal"/>
<line y1="93.6" stroke-linecap="round" class="pin" x2="14.75" y2="93.6" x1="0.349999" fill="none" stroke="none" stroke-width="0" id="connector45pin"/>
<rect x="-0.349999" height="0.699999" class="terminal" width="0.699999" y="93.2499" fill="none" stroke="none" stroke-width="0" id="connector45terminal"/>
<line y1="93.6" stroke-linecap="round" class="pin" x2="14.75" y2="93.6" x1="0.349999" fill="none" stroke="none" stroke-width="0" id="connector4pin"/>
<g x="-0.349999" height="0.699999" class="terminal" width="0.699999" y="93.2499" fill="none" stroke="none" stroke-width="0" id="connector4terminal"/>
<line y1="93.6" stroke-linecap="round" class="pin" x2="14.75" y2="93.6" x1="0.349999" fill="none" stroke="none" stroke-width="0" id="connector39pin"/>
<rect x="-0.349999" height="0.699999" class="terminal" width="0.699999" y="93.2499" fill="none" stroke="none" stroke-width="0" id="connector39terminal"/>
<line y1="93.6" stroke-linecap="round" class="pin" x2="14.75" y2="93.6" x1="0.349999" fill="none" stroke="none" stroke-width="0" id="connector47pin"/>
<rect x="-0.349999" height="0.699999" class="terminal" width="0.699999" y="93.2499" fill="none" stroke="none" stroke-width="0" id="connector47terminal"/>
<line y1="93.6" stroke-linecap="round" class="pin" x2="14.75" y2="93.6" x1="0.349999" fill="none" stroke="none" stroke-width="0" id="connector42pin"/>
<rect x="-0.349999" height="0.699999" class="terminal" width="0.699999" y="93.2499" fill="none" stroke="none" stroke-width="0" id="connector42terminal"/>
<line y1="93.6" stroke-linecap="round" class="pin" x2="14.75" y2="93.6" x1="0.349999" fill="none" stroke="#787878" stroke-width="0.699999" id="connector59pin"/>
<text x="16.15" class="text" text-anchor="start" font-size="3.49999" y="94.2999" fill="#8c8c8c" font-family="'Droid Sans'" stroke="none" stroke-width="0">A4/SDA</text>
<g x="-0.349999" height="0.699999" class="terminal" width="0.699999" y="93.2499" fill="none" stroke="none" stroke-width="0" id="connector59terminal"/>
<line y1="100.8" stroke-linecap="round" class="pin" x2="14.75" y2="100.8" x1="0.349999" fill="none" stroke="none" stroke-width="0" id="connector5pin"/>
<g x="-0.349999" height="0.699999" class="terminal" width="0.699999" y="100.45" fill="none" stroke="none" stroke-width="0" id="connector5terminal"/>
<line y1="100.8" stroke-linecap="round" class="pin" x2="14.75" y2="100.8" x1="0.349999" fill="none" stroke="#787878" stroke-width="0.699999" id="connector60pin"/>
<text x="16.15" class="text" text-anchor="start" font-size="3.49999" y="101.5" fill="#8c8c8c" font-family="'Droid Sans'" stroke="none" stroke-width="0">A5/SCL</text>
<g x="-0.349999" height="0.699999" class="terminal" width="0.699999" y="100.45" fill="none" stroke="none" stroke-width="0" id="connector60terminal"/>
<line y1="136.8" stroke-linecap="round" class="pin" x2="14.75" y2="136.8" x1="0.349999" fill="none" stroke="#787878" stroke-width="0.699999" id="connector91pin"/>
<text x="16.15" class="text" text-anchor="start" font-size="3.49999" y="137.5" fill="#8c8c8c" font-family="'Droid Sans'" stroke="none" stroke-width="0">N/C</text>
<g x="-0.349999" height="0.699999" class="terminal" width="0.699999" y="136.45" fill="none" stroke="none" stroke-width="0" id="connector91terminal"/>
<line y1="150.85" stroke-linecap="round" class="pin" x2="57.6" y2="165.25" x1="57.6" fill="none" stroke="none" stroke-width="0" id="connector88pin"/>
<g x="57.2499" height="0.699999" class="terminal" width="0.699999" y="165.25" fill="none" stroke="none" stroke-width="0" id="connector88terminal"/>
<line y1="150.85" stroke-linecap="round" class="pin" x2="57.6" y2="165.25" x1="57.6" fill="none" stroke="none" stroke-width="0" id="connector57pin"/>
<g x="57.2499" height="0.699999" class="terminal" width="0.699999" y="165.25" fill="none" stroke="none" stroke-width="0" id="connector57terminal"/>
<line y1="150.85" stroke-linecap="round" class="pin" x2="57.6" y2="165.25" x1="57.6" fill="none" stroke="none" stroke-width="0" id="connector44pin"/>
<rect x="57.2499" height="0.699999" class="terminal" width="0.699999" y="165.25" fill="none" stroke="none" stroke-width="0" id="connector44terminal"/>
<line y1="150.85" stroke-linecap="round" class="pin" x2="57.6" y2="165.25" x1="57.6" fill="none" stroke="none" stroke-width="0" id="connector50pin"/>
<rect x="57.2499" height="0.699999" class="terminal" width="0.699999" y="165.25" fill="none" stroke="none" stroke-width="0" id="connector50terminal"/>
<line y1="150.85" stroke-linecap="round" class="pin" x2="57.6" y2="165.25" x1="57.6" fill="none" stroke="#787878" stroke-width="0.699999" id="connector89pin"/>
<g transform="matrix(1, 0, 0, 1, 58.2999, 149.45)">
<g>
<g transform="rotate(270)">
<g>
<text x="0" class="text" text-anchor="start" font-size="3.49999" y="0" fill="#8c8c8c" font-family="'Droid Sans'" stroke="none" stroke-width="0">GND</text>
</g>
</g>
</g>
</g>
<g x="57.2499" height="0.699999" class="terminal" width="0.699999" y="165.25" fill="none" stroke="none" stroke-width="0" id="connector89terminal"/>
<line y1="0.349999" stroke-linecap="round" class="pin" x2="36" y2="14.75" x1="36" fill="none" stroke="#787878" stroke-width="0.699999" id="connector86pin"/>
<g transform="matrix(1, 0, 0, 1, 36.6999, 16.15)">
<g>
<g transform="rotate(270)">
<g>
<text x="0" class="text" text-anchor="end" font-size="3.49999" y="0" fill="#8c8c8c" font-family="'Droid Sans'" stroke="none" stroke-width="0">3V3</text>
</g>
</g>
</g>
</g>
<g x="35.6499" height="0.699999" class="terminal" width="0.699999" y="-0.349999" fill="none" stroke="none" stroke-width="0" id="connector86terminal"/>
<line y1="0.349999" stroke-linecap="round" class="pin" x2="50.4" y2="14.75" x1="50.4" fill="none" stroke="none" stroke-width="0" id="connector40pin"/>
<rect x="50.0499" height="0.699999" class="terminal" width="0.699999" y="-0.349999" fill="none" stroke="none" stroke-width="0" id="connector40terminal"/>
<line y1="0.349999" stroke-linecap="round" class="pin" x2="50.4" y2="14.75" x1="50.4" fill="none" stroke="none" stroke-width="0" id="connector46pin"/>
<rect x="50.0499" height="0.699999" class="terminal" width="0.699999" y="-0.349999" fill="none" stroke="none" stroke-width="0" id="connector46terminal"/>
<line y1="0.349999" stroke-linecap="round" class="pin" x2="50.4" y2="14.75" x1="50.4" fill="none" stroke="#787878" stroke-width="0.699999" id="connector87pin"/>
<g transform="matrix(1, 0, 0, 1, 51.0999, 16.15)">
<g>
<g transform="rotate(270)">
<g>
<text x="0" class="text" text-anchor="end" font-size="3.49999" y="0" fill="#8c8c8c" font-family="'Droid Sans'" stroke="none" stroke-width="0">5V</text>
</g>
</g>
</g>
</g>
<g x="50.0499" height="0.699999" class="terminal" width="0.699999" y="-0.349999" fill="none" stroke="none" stroke-width="0" id="connector87terminal"/>
<line y1="0.349999" stroke-linecap="round" class="pin" x2="64.8" y2="14.75" x1="64.8" fill="none" stroke="#787878" stroke-width="0.699999" id="connector90pin"/>
<g transform="matrix(1, 0, 0, 1, 65.4999, 16.15)">
<g>
<g transform="rotate(270)">
<g>
<text x="0" class="text" text-anchor="end" font-size="3.49999" y="0" fill="#8c8c8c" font-family="'Droid Sans'" stroke="none" stroke-width="0">VIN</text>
</g>
</g>
</g>
</g>
<g x="64.4499" height="0.699999" class="terminal" width="0.699999" y="-0.349999" fill="none" stroke="none" stroke-width="0" id="connector90terminal"/>
<text x="54.4501" class="text" text-anchor="middle" font-size="4.25001" y="76.4498" fill="#000000" font-family="'Droid Sans'" id="label" stroke="none" stroke-width="0">Arduino</text>
<text x="54.4501" class="text" text-anchor="middle" font-size="4.25001" y="80.9833" fill="#000000" font-family="'Droid Sans'" id="label" stroke="none" stroke-width="0">Uno</text>
<text x="54.4501" class="text" text-anchor="middle" font-size="4.25001" y="85.5167" fill="#000000" font-family="'Droid Sans'" id="label" stroke="none" stroke-width="0">(Rev3)</text>
</g>
</g></g><g partID='395590'><g transform='translate(143.581,24.4125)' ><g id="schematic">
<line y1="11.159" stroke-linecap="round" x2="21.6" y2="11.159" x1="19.8" fill="none" stroke="#000000" stroke-width="0.7"/>
<line y1="11.159" stroke-linecap="round" x2="19.8" y2="7.559" x1="7.2" fill="none" stroke="#000000" stroke-width="0.7"/>
<circle cy="11.159" r="0.36" cx="7.2" fill="none" stroke="#000000" stroke-width="0.7"/>
<circle cy="11.159" r="0.36" cx="21.6" fill="none" stroke="#000000" stroke-width="0.7"/>
<g transform="matrix(1, 0, 0, 1, 2.7612, 2.718)">
<text font-size="2" fill="#787878" font-family="'DroidSans'">1</text>
</g>
<g transform="matrix(1, 0, 0, 1, 24.604, 2.718)">
<text font-size="2" fill="#787878" font-family="'DroidSans'">2</text>
</g>
<g transform="matrix(1, 0, 0, 1, 2.7612, 16.843)">
<text font-size="2" fill="#787878" font-family="'DroidSans'">1</text>
</g>
<g transform="matrix(1, 0, 0, 1, 24.604, 16.843)">
<text font-size="2" fill="#787878" font-family="'DroidSans'">2</text>
</g>
<line y1="3.96" stroke-linecap="round" x2="21.6" y2="18.359" x1="21.6" fill="none" stroke="#000000" stroke-width="0.7"/>
<line y1="3.96" stroke-linecap="round" x2="7.2" y2="18.359" x1="7.2" fill="none" stroke="#000000" stroke-width="0.7"/>
<line y1="18.359" stroke-linecap="round" x2="7.2" y2="18.359" x1="0.322" fill="none" id="connector3pin" stroke="#555555" stroke-width="0.7"/>
<line y1="3.96" stroke-linecap="round" x2="7.2" y2="3.96" x1="0.322" fill="none" id="connector2pin" stroke="#555555" stroke-width="0.7"/>
<g fill="none" points="0.822,4.281,0.837,3.64,0,3.64,0,4.281" id="connector2terminal"/>
<g fill="none" points="0.822,18.694,0.837,18.053,0,18.053,0,18.694" id="connector3terminal"/>
<line y1="18.359" stroke-linecap="round" x2="21.6" y2="18.359" x1="28.451" fill="none" id="connector1pin" stroke="#555555" stroke-width="0.7"/>
<g x="27.806" height="0.672" width="0.994" y="18.006" fill="none" id="connector1terminal"/>
<g x="27.712" height="0.719" width="1.088" y="3.6" fill="none" id="connector0terminal"/>
<line y1="3.96" stroke-linecap="round" x2="21.6" y2="3.96" x1="28.451" fill="none" id="connector0pin" stroke="#555555" stroke-width="0.7"/>
</g>
</g></g><g partID='395620'><g transform='translate(143.581,25.1335)' ><g transform='matrix(1,0,0,-1,0,0)'  ><g id="schematic">
<line y1="11.159" stroke-linecap="round" x2="21.6" y2="11.159" x1="19.8" fill="none" stroke="#000000" stroke-width="0.7"/>
<line y1="11.159" stroke-linecap="round" x2="19.8" y2="7.559" x1="7.2" fill="none" stroke="#000000" stroke-width="0.7"/>
<circle cy="11.159" r="0.36" cx="7.2" fill="none" stroke="#000000" stroke-width="0.7"/>
<circle cy="11.159" r="0.36" cx="21.6" fill="none" stroke="#000000" stroke-width="0.7"/>
<g transform="matrix(1, 0, 0, 1, 2.7612, 2.718)">
<text font-size="2" fill="#787878" font-family="'DroidSans'">1</text>
</g>
<g transform="matrix(1, 0, 0, 1, 24.604, 2.718)">
<text font-size="2" fill="#787878" font-family="'DroidSans'">2</text>
</g>
<g transform="matrix(1, 0, 0, 1, 2.7612, 16.843)">
<text font-size="2" fill="#787878" font-family="'DroidSans'">1</text>
</g>
<g transform="matrix(1, 0, 0, 1, 24.604, 16.843)">
<text font-size="2" fill="#787878" font-family="'DroidSans'">2</text>
</g>
<line y1="3.96" stroke-linecap="round" x2="21.6" y2="18.359" x1="21.6" fill="none" stroke="#000000" stroke-width="0.7"/>
<line y1="3.96" stroke-linecap="round" x2="7.2" y2="18.359" x1="7.2" fill="none" stroke="#000000" stroke-width="0.7"/>
<line y1="18.359" stroke-linecap="round" x2="7.2" y2="18.359" x1="0.322" fill="none" id="connector3pin" stroke="#555555" stroke-width="0.7"/>
<line y1="3.96" stroke-linecap="round" x2="7.2" y2="3.96" x1="0.322" fill="none" id="connector2pin" stroke="#555555" stroke-width="0.7"/>
<g fill="none" points="0.822,4.281,0.837,3.64,0,3.64,0,4.281" id="connector2terminal"/>
<g fill="none" points="0.822,18.694,0.837,18.053,0,18.053,0,18.694" id="connector3terminal"/>
<line y1="18.359" stroke-linecap="round" x2="21.6" y2="18.359" x1="28.451" fill="none" id="connector1pin" stroke="#555555" stroke-width="0.7"/>
<g x="27.806" height="0.672" width="0.994" y="18.006" fill="none" id="connector1terminal"/>
<g x="27.712" height="0.719" width="1.088" y="3.6" fill="none" id="connector0terminal"/>
<line y1="3.96" stroke-linecap="round" x2="21.6" y2="3.96" x1="28.451" fill="none" id="connector0pin" stroke="#555555" stroke-width="0.7"/>
</g>
</g></g></g><g partID='395650'><g transform='translate(143.581,46.0125)' ><g transform='matrix(1,0,0,1,0,0)'  ><g id="schematic">
<line y1="11.159" stroke-linecap="round" x2="21.6" y2="11.159" x1="19.8" fill="none" stroke="#000000" stroke-width="0.7"/>
<line y1="11.159" stroke-linecap="round" x2="19.8" y2="7.559" x1="7.2" fill="none" stroke="#000000" stroke-width="0.7"/>
<circle cy="11.159" r="0.36" cx="7.2" fill="none" stroke="#000000" stroke-width="0.7"/>
<circle cy="11.159" r="0.36" cx="21.6" fill="none" stroke="#000000" stroke-width="0.7"/>
<g transform="matrix(1, 0, 0, 1, 2.7612, 2.718)">
<text font-size="2" fill="#787878" font-family="'DroidSans'">1</text>
</g>
<g transform="matrix(1, 0, 0, 1, 24.604, 2.718)">
<text font-size="2" fill="#787878" font-family="'DroidSans'">2</text>
</g>
<g transform="matrix(1, 0, 0, 1, 2.7612, 16.843)">
<text font-size="2" fill="#787878" font-family="'DroidSans'">1</text>
</g>
<g transform="matrix(1, 0, 0, 1, 24.604, 16.843)">
<text font-size="2" fill="#787878" font-family="'DroidSans'">2</text>
</g>
<line y1="3.96" stroke-linecap="round" x2="21.6" y2="18.359" x1="21.6" fill="none" stroke="#000000" stroke-width="0.7"/>
<line y1="3.96" stroke-linecap="round" x2="7.2" y2="18.359" x1="7.2" fill="none" stroke="#000000" stroke-width="0.7"/>
<line y1="18.359" stroke-linecap="round" x2="7.2" y2="18.359" x1="0.322" fill="none" id="connector3pin" stroke="#555555" stroke-width="0.7"/>
<line y1="3.96" stroke-linecap="round" x2="7.2" y2="3.96" x1="0.322" fill="none" id="connector2pin" stroke="#555555" stroke-width="0.7"/>
<g fill="none" points="0.822,4.281,0.837,3.64,0,3.64,0,4.281" id="connector2terminal"/>
<g fill="none" points="0.822,18.694,0.837,18.053,0,18.053,0,18.694" id="connector3terminal"/>
<line y1="18.359" stroke-linecap="round" x2="21.6" y2="18.359" x1="28.451" fill="none" id="connector1pin" stroke="#555555" stroke-width="0.7"/>
<g x="27.806" height="0.672" width="0.994" y="18.006" fill="none" id="connector1terminal"/>
<g x="27.712" height="0.719" width="1.088" y="3.6" fill="none" id="connector0terminal"/>
<line y1="3.96" stroke-linecap="round" x2="21.6" y2="3.96" x1="28.451" fill="none" id="connector0pin" stroke="#555555" stroke-width="0.7"/>
</g>
</g></g></g><g partID='399690'><g transform='translate(158.616,119.273)' ><g transform='matrix(0,1,-1,0,0,0)'  ><g id="schematic">
<g>
<path d="M13.5,14.966L9.9,14.966c-0.193,0,-0.35,-0.156,-0.35,-0.35s0.156,-0.35,0.35,-0.35L13.5,14.266c0.193,0,0.35,0.156,0.35,0.35S13.694,14.966,13.5,14.966z"/>
</g>
<g>
<path d="M9.9,14.966L6.3,14.966c-0.193,0,-0.35,-0.156,-0.35,-0.35s0.157,-0.35,0.35,-0.35l3.6,0c0.193,0,0.35,0.156,0.35,0.35S10.093,14.966,9.9,14.966z"/>
</g>
<g>
<polygon fill="#FFFFFF" points="9.9,14.616,6.3,7.416,9.9,7.416,13.5,7.416"/>
<path d="M9.9,15.398L5.734,7.066l8.333,0L9.9,15.398zM6.866,7.766L9.9,13.834l3.034,-6.068L6.866,7.766z"/>
</g>
<g>
<path d="M9.9,14.841c-0.124,0,-0.225,-0.101,-0.225,-0.225l0,-7.2c0,-0.124,0.101,-0.225,0.225,-0.225s0.225,0.101,0.225,0.225l0,7.2C10.124,14.74,10.024,14.841,9.9,14.841z"/>
</g>
<g>
<path d="M1.8,12.141c-0.058,0,-0.115,-0.021,-0.159,-0.065c-0.088,-0.088,-0.088,-0.23,0,-0.318l2.34,-2.341c0.088,-0.088,0.23,-0.088,0.318,0s0.088,0.23,0,0.318l-2.34,2.341C1.915,12.12,1.858,12.141,1.8,12.141z"/>
</g>
<g>
<path d="M2.16,15.381c-0.058,0,-0.115,-0.021,-0.159,-0.065c-0.088,-0.088,-0.088,-0.23,0,-0.318l2.34,-2.34c0.088,-0.088,0.23,-0.088,0.318,0s0.088,0.23,0,0.318l-2.34,2.34C2.276,15.359,2.218,15.381,2.16,15.381z"/>
</g>
<g id="connector0pin">
<path fill="#787878" d="M9.9,22.166c-0.193,0,-0.35,-0.156,-0.35,-0.35l0,-7.2c0,-0.193,0.156,-0.35,0.35,-0.35s0.35,0.156,0.35,0.35l0,7.2C10.249,22.01,10.093,22.166,9.9,22.166z"/>
</g>
<g id="connector0terminal">
<rect x="9.9" height="0.001" width="0.001" y="21.816" fill="none"/>
</g>
<g transform="matrix(1, 0, 0, 1, 3.429, 6.4262)">
<g>
<g transform="rotate(270)">
<g>
<g enable-background="new    ">
<path fill="#787878" d="M-11.647,5.54l-0.891,0L-12.538,5.388l0.342,-0.372c0.049,-0.053,0.093,-0.101,0.131,-0.145s0.071,-0.086,0.099,-0.128c0.026,-0.042,0.047,-0.084,0.062,-0.125c0.015,-0.043,0.021,-0.088,0.021,-0.138c0,-0.038,-0.005,-0.072,-0.017,-0.102s-0.027,-0.054,-0.047,-0.075c-0.021,-0.02,-0.045,-0.035,-0.073,-0.046s-0.06,-0.016,-0.094,-0.016c-0.062,0,-0.118,0.013,-0.167,0.038c-0.051,0.024,-0.098,0.057,-0.143,0.096l-0.1,-0.116c0.025,-0.023,0.055,-0.046,0.084,-0.065c0.029,-0.021,0.063,-0.039,0.097,-0.054s0.071,-0.026,0.109,-0.036c0.038,-0.008,0.079,-0.013,0.121,-0.013c0.063,0,0.119,0.009,0.169,0.026c0.051,0.018,0.094,0.043,0.129,0.076c0.035,0.032,0.063,0.072,0.082,0.119c0.019,0.048,0.028,0.101,0.028,0.16c0,0.056,-0.009,0.108,-0.026,0.158c-0.017,0.05,-0.041,0.1,-0.07,0.148c-0.031,0.048,-0.066,0.097,-0.109,0.146c-0.041,0.049,-0.087,0.1,-0.136,0.152L-12.32,5.37l0,0.008l0.673,0L-11.647,5.54z"/>
</g>
</g>
</g>
</g>
</g>
<g id="connector1pin">
<path fill="#787878" d="M9.9,7.766c-0.193,0,-0.35,-0.157,-0.35,-0.35l0,-7.2c0,-0.193,0.156,-0.35,0.35,-0.35s0.35,0.157,0.35,0.35l0,7.2C10.249,7.609,10.093,7.766,9.9,7.766z"/>
</g>
<g id="connector1terminal">
<polygon fill="none" points="9.9,0.216,9.901,0.216,9.901,0.216"/>
</g>
<g transform="matrix(1, 0, 0, 1, 3.429, 1.3462)">
<g>
<g transform="rotate(270)">
<g>
<g enable-background="new    ">
<path fill="#787878" d="M-2.616,5.54l-0.172,0L-2.788,4.648c0,-0.028,0,-0.058,0,-0.09s0.001,-0.063,0.002,-0.095c0.001,-0.032,0.002,-0.063,0.003,-0.092c0.001,-0.028,0.002,-0.054,0.002,-0.076c-0.011,0.012,-0.021,0.021,-0.029,0.03s-0.017,0.017,-0.026,0.024s-0.018,0.016,-0.028,0.025c-0.01,0.008,-0.021,0.019,-0.035,0.03l-0.145,0.118l-0.094,-0.12l0.374,-0.292l0.146,0L-2.618,5.54z"/>
</g>
</g>
</g>
</g>
</g>
<g>
<path d="M0.18,13.536l1.08,-2.521l1.44,1.438L0.18,13.536z"/>
</g>
<g>
<path d="M0.54,16.776l1.08,-2.521l1.438,1.438L0.54,16.776z"/>
</g>
</g>
</g></g></g><g partID='399670'><g transform='translate(158.616,97.6725)' ><g transform='matrix(0,1,-1,0,0,0)'  ><g id="schematic">
<g>
<path d="M13.5,14.966L9.9,14.966c-0.193,0,-0.35,-0.156,-0.35,-0.35s0.156,-0.35,0.35,-0.35L13.5,14.266c0.193,0,0.35,0.156,0.35,0.35S13.694,14.966,13.5,14.966z"/>
</g>
<g>
<path d="M9.9,14.966L6.3,14.966c-0.193,0,-0.35,-0.156,-0.35,-0.35s0.157,-0.35,0.35,-0.35l3.6,0c0.193,0,0.35,0.156,0.35,0.35S10.093,14.966,9.9,14.966z"/>
</g>
<g>
<polygon fill="#FFFFFF" points="9.9,14.616,6.3,7.416,9.9,7.416,13.5,7.416"/>
<path d="M9.9,15.398L5.734,7.066l8.333,0L9.9,15.398zM6.866,7.766L9.9,13.834l3.034,-6.068L6.866,7.766z"/>
</g>
<g>
<path d="M9.9,14.841c-0.124,0,-0.225,-0.101,-0.225,-0.225l0,-7.2c0,-0.124,0.101,-0.225,0.225,-0.225s0.225,0.101,0.225,0.225l0,7.2C10.124,14.74,10.024,14.841,9.9,14.841z"/>
</g>
<g>
<path d="M1.8,12.141c-0.058,0,-0.115,-0.021,-0.159,-0.065c-0.088,-0.088,-0.088,-0.23,0,-0.318l2.34,-2.341c0.088,-0.088,0.23,-0.088,0.318,0s0.088,0.23,0,0.318l-2.34,2.341C1.915,12.12,1.858,12.141,1.8,12.141z"/>
</g>
<g>
<path d="M2.16,15.381c-0.058,0,-0.115,-0.021,-0.159,-0.065c-0.088,-0.088,-0.088,-0.23,0,-0.318l2.34,-2.34c0.088,-0.088,0.23,-0.088,0.318,0s0.088,0.23,0,0.318l-2.34,2.34C2.276,15.359,2.218,15.381,2.16,15.381z"/>
</g>
<g id="connector0pin">
<path fill="#787878" d="M9.9,22.166c-0.193,0,-0.35,-0.156,-0.35,-0.35l0,-7.2c0,-0.193,0.156,-0.35,0.35,-0.35s0.35,0.156,0.35,0.35l0,7.2C10.249,22.01,10.093,22.166,9.9,22.166z"/>
</g>
<g id="connector0terminal">
<rect x="9.9" height="0.001" width="0.001" y="21.816" fill="none"/>
</g>
<g transform="matrix(1, 0, 0, 1, 3.429, 6.4262)">
<g>
<g transform="rotate(270)">
<g>
<g enable-background="new    ">
<path fill="#787878" d="M-11.647,5.54l-0.891,0L-12.538,5.388l0.342,-0.372c0.049,-0.053,0.093,-0.101,0.131,-0.145s0.071,-0.086,0.099,-0.128c0.026,-0.042,0.047,-0.084,0.062,-0.125c0.015,-0.043,0.021,-0.088,0.021,-0.138c0,-0.038,-0.005,-0.072,-0.017,-0.102s-0.027,-0.054,-0.047,-0.075c-0.021,-0.02,-0.045,-0.035,-0.073,-0.046s-0.06,-0.016,-0.094,-0.016c-0.062,0,-0.118,0.013,-0.167,0.038c-0.051,0.024,-0.098,0.057,-0.143,0.096l-0.1,-0.116c0.025,-0.023,0.055,-0.046,0.084,-0.065c0.029,-0.021,0.063,-0.039,0.097,-0.054s0.071,-0.026,0.109,-0.036c0.038,-0.008,0.079,-0.013,0.121,-0.013c0.063,0,0.119,0.009,0.169,0.026c0.051,0.018,0.094,0.043,0.129,0.076c0.035,0.032,0.063,0.072,0.082,0.119c0.019,0.048,0.028,0.101,0.028,0.16c0,0.056,-0.009,0.108,-0.026,0.158c-0.017,0.05,-0.041,0.1,-0.07,0.148c-0.031,0.048,-0.066,0.097,-0.109,0.146c-0.041,0.049,-0.087,0.1,-0.136,0.152L-12.32,5.37l0,0.008l0.673,0L-11.647,5.54z"/>
</g>
</g>
</g>
</g>
</g>
<g id="connector1pin">
<path fill="#787878" d="M9.9,7.766c-0.193,0,-0.35,-0.157,-0.35,-0.35l0,-7.2c0,-0.193,0.156,-0.35,0.35,-0.35s0.35,0.157,0.35,0.35l0,7.2C10.249,7.609,10.093,7.766,9.9,7.766z"/>
</g>
<g id="connector1terminal">
<polygon fill="none" points="9.9,0.216,9.901,0.216,9.901,0.216"/>
</g>
<g transform="matrix(1, 0, 0, 1, 3.429, 1.3462)">
<g>
<g transform="rotate(270)">
<g>
<g enable-background="new    ">
<path fill="#787878" d="M-2.616,5.54l-0.172,0L-2.788,4.648c0,-0.028,0,-0.058,0,-0.09s0.001,-0.063,0.002,-0.095c0.001,-0.032,0.002,-0.063,0.003,-0.092c0.001,-0.028,0.002,-0.054,0.002,-0.076c-0.011,0.012,-0.021,0.021,-0.029,0.03s-0.017,0.017,-0.026,0.024s-0.018,0.016,-0.028,0.025c-0.01,0.008,-0.021,0.019,-0.035,0.03l-0.145,0.118l-0.094,-0.12l0.374,-0.292l0.146,0L-2.618,5.54z"/>
</g>
</g>
</g>
</g>
</g>
<g>
<path d="M0.18,13.536l1.08,-2.521l1.44,1.438L0.18,13.536z"/>
</g>
<g>
<path d="M0.54,16.776l1.08,-2.521l1.438,1.438L0.54,16.776z"/>
</g>
</g>
</g></g></g><g partID='399640'><g transform='translate(158.616,76.0725)' ><g transform='matrix(0,1,-1,0,0,0)'  ><g id="schematic">
<g>
<path d="M13.5,14.966L9.9,14.966c-0.193,0,-0.35,-0.156,-0.35,-0.35s0.156,-0.35,0.35,-0.35L13.5,14.266c0.193,0,0.35,0.156,0.35,0.35S13.694,14.966,13.5,14.966z"/>
</g>
<g>
<path d="M9.9,14.966L6.3,14.966c-0.193,0,-0.35,-0.156,-0.35,-0.35s0.157,-0.35,0.35,-0.35l3.6,0c0.193,0,0.35,0.156,0.35,0.35S10.093,14.966,9.9,14.966z"/>
</g>
<g>
<polygon fill="#FFFFFF" points="9.9,14.616,6.3,7.416,9.9,7.416,13.5,7.416"/>
<path d="M9.9,15.398L5.734,7.066l8.333,0L9.9,15.398zM6.866,7.766L9.9,13.834l3.034,-6.068L6.866,7.766z"/>
</g>
<g>
<path d="M9.9,14.841c-0.124,0,-0.225,-0.101,-0.225,-0.225l0,-7.2c0,-0.124,0.101,-0.225,0.225,-0.225s0.225,0.101,0.225,0.225l0,7.2C10.124,14.74,10.024,14.841,9.9,14.841z"/>
</g>
<g>
<path d="M1.8,12.141c-0.058,0,-0.115,-0.021,-0.159,-0.065c-0.088,-0.088,-0.088,-0.23,0,-0.318l2.34,-2.341c0.088,-0.088,0.23,-0.088,0.318,0s0.088,0.23,0,0.318l-2.34,2.341C1.915,12.12,1.858,12.141,1.8,12.141z"/>
</g>
<g>
<path d="M2.16,15.381c-0.058,0,-0.115,-0.021,-0.159,-0.065c-0.088,-0.088,-0.088,-0.23,0,-0.318l2.34,-2.34c0.088,-0.088,0.23,-0.088,0.318,0s0.088,0.23,0,0.318l-2.34,2.34C2.276,15.359,2.218,15.381,2.16,15.381z"/>
</g>
<g id="connector0pin">
<path fill="#787878" d="M9.9,22.166c-0.193,0,-0.35,-0.156,-0.35,-0.35l0,-7.2c0,-0.193,0.156,-0.35,0.35,-0.35s0.35,0.156,0.35,0.35l0,7.2C10.249,22.01,10.093,22.166,9.9,22.166z"/>
</g>
<g id="connector0terminal">
<rect x="9.9" height="0.001" width="0.001" y="21.816" fill="none"/>
</g>
<g transform="matrix(1, 0, 0, 1, 3.429, 6.4262)">
<g>
<g transform="rotate(270)">
<g>
<g enable-background="new    ">
<path fill="#787878" d="M-11.647,5.54l-0.891,0L-12.538,5.388l0.342,-0.372c0.049,-0.053,0.093,-0.101,0.131,-0.145s0.071,-0.086,0.099,-0.128c0.026,-0.042,0.047,-0.084,0.062,-0.125c0.015,-0.043,0.021,-0.088,0.021,-0.138c0,-0.038,-0.005,-0.072,-0.017,-0.102s-0.027,-0.054,-0.047,-0.075c-0.021,-0.02,-0.045,-0.035,-0.073,-0.046s-0.06,-0.016,-0.094,-0.016c-0.062,0,-0.118,0.013,-0.167,0.038c-0.051,0.024,-0.098,0.057,-0.143,0.096l-0.1,-0.116c0.025,-0.023,0.055,-0.046,0.084,-0.065c0.029,-0.021,0.063,-0.039,0.097,-0.054s0.071,-0.026,0.109,-0.036c0.038,-0.008,0.079,-0.013,0.121,-0.013c0.063,0,0.119,0.009,0.169,0.026c0.051,0.018,0.094,0.043,0.129,0.076c0.035,0.032,0.063,0.072,0.082,0.119c0.019,0.048,0.028,0.101,0.028,0.16c0,0.056,-0.009,0.108,-0.026,0.158c-0.017,0.05,-0.041,0.1,-0.07,0.148c-0.031,0.048,-0.066,0.097,-0.109,0.146c-0.041,0.049,-0.087,0.1,-0.136,0.152L-12.32,5.37l0,0.008l0.673,0L-11.647,5.54z"/>
</g>
</g>
</g>
</g>
</g>
<g id="connector1pin">
<path fill="#787878" d="M9.9,7.766c-0.193,0,-0.35,-0.157,-0.35,-0.35l0,-7.2c0,-0.193,0.156,-0.35,0.35,-0.35s0.35,0.157,0.35,0.35l0,7.2C10.249,7.609,10.093,7.766,9.9,7.766z"/>
</g>
<g id="connector1terminal">
<polygon fill="none" points="9.9,0.216,9.901,0.216,9.901,0.216"/>
</g>
<g transform="matrix(1, 0, 0, 1, 3.429, 1.3462)">
<g>
<g transform="rotate(270)">
<g>
<g enable-background="new    ">
<path fill="#787878" d="M-2.616,5.54l-0.172,0L-2.788,4.648c0,-0.028,0,-0.058,0,-0.09s0.001,-0.063,0.002,-0.095c0.001,-0.032,0.002,-0.063,0.003,-0.092c0.001,-0.028,0.002,-0.054,0.002,-0.076c-0.011,0.012,-0.021,0.021,-0.029,0.03s-0.017,0.017,-0.026,0.024s-0.018,0.016,-0.028,0.025c-0.01,0.008,-0.021,0.019,-0.035,0.03l-0.145,0.118l-0.094,-0.12l0.374,-0.292l0.146,0L-2.618,5.54z"/>
</g>
</g>
</g>
</g>
</g>
<g>
<path d="M0.18,13.536l1.08,-2.521l1.44,1.438L0.18,13.536z"/>
</g>
<g>
<path d="M0.54,16.776l1.08,-2.521l1.438,1.438L0.54,16.776z"/>
</g>
</g>
</g></g></g><g partID='408610'><g transform='translate(50.3994,179.096)' ><g xmlns="http://www.w3.org/2000/svg" id="schematic">
<path xmlns="http://www.w3.org/2000/svg" stroke-linecap="round" fill="none" d="M7.201,7.575l0,-7.2" id="connector0pin" stroke="#787878" stroke-width="0.75"/>
<g xmlns="http://www.w3.org/2000/svg" x="6.728" height="0.953" width="0.945" y="0" fill="none" id="connector0terminal"/>
<path xmlns="http://www.w3.org/2000/svg" stroke-linecap="round" fill="none" d="M0.5,7.711L13.9,7.711" id="path4098" stroke="#000000" stroke-width="0.9"/>
<path xmlns="http://www.w3.org/2000/svg" stroke-linecap="round" fill="none" d="M2.732,10.456l8.935,0" id="path4100" stroke="#000000" stroke-width="0.9"/>
<path xmlns="http://www.w3.org/2000/svg" stroke-linecap="round" fill="none" d="M9.431,13.175L4.967,13.175" id="path4102" stroke="#000000" stroke-width="0.9"/>
</g>
</g></g><g partID='408820'><g transform='translate(165.599,157.496)' ><g xmlns="http://www.w3.org/2000/svg" id="schematic">
<path xmlns="http://www.w3.org/2000/svg" stroke-linecap="round" fill="none" d="M7.201,7.575l0,-7.2" id="connector0pin" stroke="#787878" stroke-width="0.75"/>
<g xmlns="http://www.w3.org/2000/svg" x="6.728" height="0.953" width="0.945" y="0" fill="none" id="connector0terminal"/>
<path xmlns="http://www.w3.org/2000/svg" stroke-linecap="round" fill="none" d="M0.5,7.711L13.9,7.711" id="path4098" stroke="#000000" stroke-width="0.9"/>
<path xmlns="http://www.w3.org/2000/svg" stroke-linecap="round" fill="none" d="M2.732,10.456l8.935,0" id="path4100" stroke="#000000" stroke-width="0.9"/>
<path xmlns="http://www.w3.org/2000/svg" stroke-linecap="round" fill="none" d="M9.431,13.175L4.967,13.175" id="path4102" stroke="#000000" stroke-width="0.9"/>
</g>
</g></g><g partID='410270'><g transform='translate(43.2184,0)' ><g id="schematic">
<line stroke-miterlimit="10" y1="6.78" stroke-linecap="round" x2="7.2" y2="13.98" x1="7.2" fill="none" id="connector0pin" stroke="#787878" stroke-width="0.75"/>
<g fill="none" points="6.817,13.567,7.546,13.546,7.546,14.4,6.859,14.359" id="connector0terminal"/>
<path stroke-linecap="round" fill="none" d="M0.45,6.564l13.5,0" stroke="#000000" stroke-width="0.9"/>
<g transform="matrix(1, 0, 0, 1, 1.4985, 4.9878)">
<text font-size="4.4991" font-family="'DroidSans'" id="label">5V</text>
</g>
</g>
</g></g><g partID='411380'><line stroke-linecap='round' stroke='#404040' x1='172.8' y1='107.573' x2='158.4' y2='107.573' stroke-width='0.699998' /></g><circle  fill="black" cx="158.4" cy="107.573" r="1.44" stroke-width="0" stroke="none" /><g partID='411230'><line stroke-linecap='round' stroke='#404040' x1='172.8' y1='129.173' x2='172.8' y2='107.573' stroke-width='0.699998' /></g><g partID='404690'><line stroke-linecap='round' stroke='#404040' x1='158.4' y1='129.173' x2='172.8' y2='129.173' stroke-width='0.699998' /></g><circle  fill="black" cx="158.4" cy="129.173" r="1.44" stroke-width="0" stroke="none" /><g partID='409710'><line stroke-linecap='round' stroke='#404040' x1='172.8' y1='85.973' x2='158.4' y2='85.973' stroke-width='0.699998' /></g><circle  fill="black" cx="158.4" cy="85.973" r="1.44" stroke-width="0" stroke="none" /><g partID='405570'><line stroke-linecap='round' stroke='#404040' x1='172.8' y1='107.573' x2='172.8' y2='107.573' stroke-width='0.699998' /></g><g partID='405370'><line stroke-linecap='round' stroke='#404040' x1='158.4' y1='107.573' x2='172.8' y2='107.573' stroke-width='0.699998' /></g><circle  fill="black" cx="158.4" cy="107.573" r="1.44" stroke-width="0" stroke="none" /><g partID='419850'><line stroke-linecap='round' stroke='#404040' x1='172.8' y1='107.573' x2='172.8' y2='85.973' stroke-width='0.699998' /></g><g partID='409900'><line stroke-linecap='round' stroke='#404040' x1='172.8' y1='64.373' x2='171.884' y2='64.3545' stroke-width='0.699998' /></g><g partID='406170'><line stroke-linecap='round' stroke='#404040' x1='172.8' y1='85.973' x2='172.8' y2='64.373' stroke-width='0.699998' /></g><g partID='405990'><line stroke-linecap='round' stroke='#404040' x1='158.4' y1='85.973' x2='172.8' y2='85.973' stroke-width='0.699998' /></g><circle  fill="black" cx="158.4" cy="85.973" r="1.44" stroke-width="0" stroke="none" /><g partID='407200'><line stroke-linecap='round' stroke='#404040' x1='172.8' y1='49.973' x2='172.8' y2='42.773' stroke-width='0.699998' /></g><g partID='407010'><line stroke-linecap='round' stroke='#404040' x1='172.8' y1='42.773' x2='171.884' y2='42.7545' stroke-width='0.699998' /></g><g partID='406420'><line stroke-linecap='round' stroke='#404040' x1='171.837' y1='49.972' x2='172.8' y2='49.973' stroke-width='0.699998' /></g><g partID='406840'><line stroke-linecap='round' stroke='#404040' x1='172.8' y1='28.373' x2='171.837' y2='28.372' stroke-width='0.699998' /></g><g partID='406600'><line stroke-linecap='round' stroke='#404040' x1='172.8' y1='21.173' x2='172.8' y2='28.373' stroke-width='0.699998' /></g><g partID='406610'><line stroke-linecap='round' stroke='#404040' x1='171.837' y1='21.174' x2='172.8' y2='21.173' stroke-width='0.699998' /></g><g partID='407850'><line stroke-linecap='round' stroke='#404040' x1='115.2' y1='57.173' x2='115.2' y2='21.173' stroke-width='0.699998' /></g><g partID='407540'><line stroke-linecap='round' stroke='#404040' x1='115.2' y1='21.173' x2='144' y2='21.173' stroke-width='0.699998' /></g><g partID='407500'><line stroke-linecap='round' stroke='#404040' x1='108' y1='57.173' x2='115.2' y2='57.173' stroke-width='0.699998' /></g><g partID='407630'><line stroke-linecap='round' stroke='#404040' x1='122.4' y1='42.373' x2='144' y2='42.786' stroke-width='0.699998' /></g><g partID='407810'><line stroke-linecap='round' stroke='#404040' x1='122.4' y1='64.373' x2='122.4' y2='42.373' stroke-width='0.699998' /></g><g partID='407590'><line stroke-linecap='round' stroke='#404040' x1='108' y1='64.373' x2='122.4' y2='64.373' stroke-width='0.699998' /></g><g partID='407720'><line stroke-linecap='round' stroke='#404040' x1='129.6' y1='64.373' x2='129.6' y2='71.573' stroke-width='0.699998' /></g><g partID='407770'><line stroke-linecap='round' stroke='#404040' x1='129.6' y1='71.573' x2='108' y2='71.573' stroke-width='0.699998' /></g><g partID='407680'><line stroke-linecap='round' stroke='#404040' x1='144' y1='64.386' x2='129.6' y2='64.373' stroke-width='0.699998' /></g><g partID='411530'><line stroke-linecap='round' stroke='#404040' x1='172.8' y1='129.173' x2='172.8' y2='157.973' stroke-width='0.699998' /></g><g partID='409400'><line stroke-linecap='round' stroke='#404040' x1='172.8' y1='129.173' x2='172.8' y2='129.173' stroke-width='0.699998' /></g><g partID='408850'><line stroke-linecap='round' stroke='#404040' x1='158.4' y1='129.173' x2='172.8' y2='129.173' stroke-width='0.699998' /></g><circle  fill="black" cx="158.4" cy="129.173" r="1.44" stroke-width="0" stroke="none" /><g partID='409220'><line stroke-linecap='round' stroke='#404040' x1='57.5999' y1='179.573' x2='57.5999' y2='179.573' stroke-width='0.699998' /></g><g partID='410320'><line stroke-linecap='round' stroke='#404040' x1='50.3999' y1='13.9731' x2='50.3999' y2='13.973' stroke-width='0.699998' /></g><g partID='419650'><line stroke-linecap='round' stroke='#404040' x1='129.6' y1='114.773' x2='129.6' y2='85.973' stroke-width='0.699998' /></g><g partID='419260'><line stroke-linecap='round' stroke='#404040' x1='108' y1='114.773' x2='129.6' y2='114.773' stroke-width='0.699998' /></g><g partID='419700'><line stroke-linecap='round' stroke='#404040' x1='129.6' y1='85.973' x2='136.8' y2='85.973' stroke-width='0.699998' /></g><g partID='419300'><line stroke-linecap='round' stroke='#404040' x1='136.8' y1='129.173' x2='108' y2='129.173' stroke-width='0.699998' /></g><g partID='421600'><line stroke-linecap='round' stroke='#404040' x1='136.8' y1='107.573' x2='136.8' y2='121.973' stroke-width='0.699998' /></g><g partID='421620'><line stroke-linecap='round' stroke='#404040' x1='136.8' y1='121.973' x2='108' y2='121.973' stroke-width='0.699998' /></g><g partID='386050' id='partLabel'><g transform='translate(66.9333,22.7731)' ><g font-size='5' font-style='normal' font-weight='normal' fill='#000000' font-family="'DroidSans'" id='schematicLabel' fill-opacity='1' stroke='none' ><text x='0' y='3.75'>Componente1</text></g></g></g><g partID='395590' id='partLabel'><g transform='translate(154.515,37.2125)' ><g font-size='5' font-style='normal' font-weight='normal' fill='#000000' font-family="'DroidSans'" id='schematicLabel' fill-opacity='1' stroke='none' ><text x='0' y='3.75'>S1</text></g></g></g><g partID='395620' id='partLabel'><g transform='translate(161.981,12.3335)' ><g transform='matrix(-1,0,0,-1,0,0)'  ><g font-size='5' font-style='normal' font-weight='normal' fill='#000000' font-family="'DroidSans'" id='schematicLabel' fill-opacity='1' stroke='none' ><text x='0' y='3.75'>S2</text></g></g></g></g><g partID='395650' id='partLabel'><g transform='translate(154.2,59.3935)' ><g font-size='5' font-style='normal' font-weight='normal' fill='#000000' font-family="'DroidSans'" id='schematicLabel' fill-opacity='1' stroke='none' ><text x='0' y='3.75'>S3</text></g></g></g><g partID='399670' id='partLabel'><g transform='translate(141.683,112.819)' ><g font-size='5' font-style='normal' font-weight='normal' fill='#000000' font-family="'DroidSans'" id='schematicLabel' fill-opacity='1' stroke='none' ><text x='0' y='3.75'>LED2</text></g></g></g><g partID='399690' id='partLabel'><g transform='translate(141.15,134.153)' ><g font-size='5' font-style='normal' font-weight='normal' fill='#000000' font-family="'DroidSans'" id='schematicLabel' fill-opacity='1' stroke='none' ><text x='0' y='3.75'>LED3</text></g></g></g><g partID='399640' id='partLabel'><g transform='translate(141.95,90.9525)' ><g font-size='5' font-style='normal' font-weight='normal' fill='#000000' font-family="'DroidSans'" id='schematicLabel' fill-opacity='1' stroke='none' ><text x='0' y='3.75'>LED1</text></g></g></g></svg>